<svg xmlns="http://www.w3.org/2000/svg" width="100" height="100" fill="none" viewBox="0 0 100 100">
  <path fill="#000" d="M89.352 36.356a1.953 1.953 0 1 0-1.818-3.457 1.953 1.953 0 0 0 1.818 3.457Z"/>
  <path fill="#000" d="M95.327 54.673c0-4.233-.584-8.424-1.734-12.457a1.957 1.957 0 1 0-3.764 1.074 41.488 41.488 0 0 1 1.584 11.383c0 5.158-.927 10.16-2.76 14.9a12.07 12.07 0 0 0-5.642-1.394c-6.698 0-12.146 5.448-12.146 12.146 0 3.116 1.18 5.961 3.116 8.114-7.022 5.009-15.267 7.647-23.98 7.647-8.425 0-16.447-2.481-23.331-7.193a12.085 12.085 0 0 0 2.678-7.596c0-6.697-5.45-12.146-12.147-12.146-1.91-.002-3.792.45-5.493 1.318-2.07-5.001-3.12-10.304-3.12-15.795 0-9.466 3.108-18.376 8.988-25.765 5.282-6.638 12.543-11.533 20.613-13.937 1.277 5.34 6.086 9.322 11.811 9.322s10.535-3.983 11.812-9.322A41.718 41.718 0 0 1 82.079 28.48a1.952 1.952 0 0 0 2.754.276c.836-.684.96-1.916.276-2.753-5.923-7.245-14.056-12.541-23.02-15.023C61.5 4.828 56.305 0 50 0S38.5 4.828 37.91 10.98c-9.167 2.537-17.436 8-23.397 15.492-6.437 8.089-9.84 17.84-9.84 28.201 0 6.339 1.278 12.451 3.799 18.19a12.102 12.102 0 0 0-3.419 8.434c0 6.698 5.45 12.147 12.147 12.147a12.07 12.07 0 0 0 6.47-1.874C31.38 97.089 40.455 100 50 100c9.916 0 19.277-3.12 27.157-9.036a12.07 12.07 0 0 0 5.854 1.508c6.698 0 12.147-5.449 12.147-12.147a12.1 12.1 0 0 0-3.278-8.287c2.288-5.502 3.447-11.337 3.447-17.365ZM50 3.913c4.54 0 8.233 3.694 8.233 8.234S54.54 20.38 50 20.38c-4.54 0-8.233-3.694-8.233-8.233 0-4.54 3.693-8.233 8.233-8.233ZM8.967 81.298c0-4.54 3.694-8.233 8.234-8.233s8.232 3.694 8.232 8.233c0 4.54-3.693 8.233-8.232 8.233-4.54 0-8.234-3.693-8.234-8.233Zm74.044 7.261c-4.54 0-8.233-3.693-8.233-8.233 0-4.54 3.694-8.233 8.233-8.233 4.54 0 8.233 3.694 8.233 8.233 0 4.54-3.693 8.233-8.233 8.233Z"/>
  <path fill="#000" d="M34.824 34.37c-1.08 0-1.957.876-1.957 1.957V66.68c0 1.08.876 1.957 1.957 1.957h30.352c1.08 0 1.957-.876 1.957-1.957V36.327c0-1.08-.876-1.957-1.957-1.957H34.824Zm4.725 30.352 23.67-23.67v9.023L48.572 64.722H39.55ZM36.78 52.93l14.647-14.647h9.023l-23.67 23.67V52.93Zm9.112-14.647-9.112 9.111v-9.111h9.112Zm8.214 26.438 9.112-9.112v9.112h-9.112Z"/>
</svg>
