
<svg xmlns="http://www.w3.org/2000/svg" width="100" height="100" fill="none" viewBox="0 0 100 100">
  <g clip-path="url(#a)">
    <path fill="#000" d="m93.661 24.553-16.605-9.978a1.466 1.466 0 0 0-1.51 0l-7.476 4.493v-7.626c0-.505-.244-.969-.71-1.255L50.753.209a1.465 1.465 0 0 0-1.509 0L44.62 2.988a1.465 1.465 0 1 0 1.509 2.511L50 3.174l13.76 8.268L50 19.712l-13.761-8.27 4.906-2.948a1.465 1.465 0 0 0-1.509-2.511l-6.996 4.204c-.441.27-.71.737-.71 1.255v7.626l-7.477-4.493a1.466 1.466 0 0 0-1.51 0L6.34 24.553c-.44.27-.71.737-.71 1.255v20.445a1.465 1.465 0 0 0 .71 1.256l5.93 3.563-3.937 2.366c-.44.27-.71.737-.71 1.256V75.14a1.465 1.465 0 0 0 .71 1.255l4.233 2.544a1.465 1.465 0 0 0 1.51-2.511l-3.523-2.117V57.283l13.675 8.218v17.026l-5.176-3.11a1.465 1.465 0 0 0-1.509 2.511l7.395 4.444a1.47 1.47 0 0 0 1.51 0l5.483-3.295v5.48a1.466 1.466 0 0 0 .71 1.257l16.605 9.977a1.465 1.465 0 0 0 1.51 0l16.605-9.977a1.466 1.466 0 0 0 .71-1.256v-5.481l5.484 3.295a1.471 1.471 0 0 0 1.51 0l16.604-9.978a1.465 1.465 0 0 0 .71-1.255V67.47a1.465 1.465 0 1 0-2.929 0v6.839l-13.675 8.217V65.501l12.866-7.732.809-.486V61.6a1.465 1.465 0 1 0 2.93 0v-6.905c0-.49-.244-.97-.71-1.256l-3.938-2.366 5.93-3.563a1.464 1.464 0 0 0 .71-1.256V25.808c0-.496-.248-.972-.71-1.255ZM50 76.382l-13.761-8.27 4.18-2.51 8.826 5.303a1.464 1.464 0 0 0 1.51 0l8.826-5.303 4.18 2.51L50 76.383Zm0-45.423 13.76 8.268L50 47.496l-13.761-8.269 13.76-8.268Zm-24.837 5.656 13.611-8.179.064-.038v5.85l-6.198 3.724a1.47 1.47 0 0 0-.71 1.256v10.348l-6.767 4.066V36.615Zm9.697 22.228V41.817l13.675 8.217V67.06L34.86 58.843Zm16.605 8.218V50.034l13.675-8.218v17.027l-13.675 8.218ZM68.07 39.227c0-.528-.283-.993-.71-1.255l-6.199-3.725v-5.85l13.676 8.218v17.027l-6.767-4.067V39.227ZM76.3 17.54l13.761 8.268-13.76 8.27-13.762-8.27L76.3 17.54Zm-17.36 7.013c-.44.27-.71.736-.71 1.255v6.679l-6.766-4.066v-6.172L65.14 14.03v6.797l-6.198 3.725ZM34.86 14.03l13.675 8.218v6.172l-6.767 4.066V25.81c0-.49-.245-.97-.71-1.256L34.86 20.83v-6.8Zm-11.162 3.51 13.761 8.268-13.76 8.27-13.762-8.27 13.761-8.268ZM8.558 28.398l13.676 8.217v17.027L8.558 45.425V28.398Zm14.386 29.089c.36.216.73.211.71.208.28.009.558-.064.799-.208l7.477-4.493v6.22l-6.238 3.749-13.762-8.27 3.183-1.912 7.83 4.706Zm4.212 25.04V65.501l6.547-3.935 3.871 2.326-4.934 2.965c-.431.265-.71.727-.71 1.256v11.546l-4.774 2.868Zm7.704-11.825 13.675 8.218v17.026L34.86 87.73V70.702ZM65.14 87.73l-13.675 8.217V78.919l13.675-8.217v17.027Zm2.93-19.616a1.52 1.52 0 0 0-.71-1.256l-4.935-2.965 3.871-2.326 6.547 3.935v17.026L68.07 79.66V68.113Zm20-13.42-13.762 8.27-6.238-3.749v-6.22l7.477 4.493a1.468 1.468 0 0 0 1.509 0l7.83-4.705 3.183 1.912Zm3.372-9.268-13.676 8.217V36.615l13.676-8.218v17.028Z"/>
  </g>
  <defs>
    <clipPath id="a">
      <path fill="#fff" d="M0 0h100v100H0z"/>
    </clipPath>
  </defs>
</svg>

